<svg width="519" height="384" viewBox="0 0 519 384" fill="none" xmlns="http://www.w3.org/2000/svg">
<path d="M18.3117 295.191L18.3383 295.171L18.3639 295.149C21.8235 292.248 23.7002 287.693 25.1432 283.113C25.6604 281.471 26.1212 279.836 26.5735 278.229C27.3023 275.642 28.0093 273.131 28.896 270.798L51.8136 277.032L58.8338 299.478C50.3459 305.095 41.9772 308.677 28.86 308.401C18.6892 307.8 12.9518 306.172 4.44665 303.122C6.42019 302.422 7.96164 301.84 9.47448 301.096C11.9031 299.902 14.2517 298.299 18.3117 295.191Z" fill="#8CD5DA" stroke="#698189" stroke-width="3"/>
<path d="M28 269L53 275.8L60.6 300L55.9 302.7C49.8 299.3 46.5 300.8 37.5 292.5C27.1 280.5 30.3 280.1 26.7 273.9L28 269Z" fill="#769B9D" fill-opacity="0.5333"/>
<path d="M15.8992 188.448L15.8993 188.446C16.3961 172.35 18.4048 157.887 24.3573 142.839C30.3056 127.802 40.2272 112.094 56.6611 93.5641C90.8449 63.4278 121.868 59.461 144.985 56.5052C146.35 56.3307 147.687 56.1597 148.996 55.9871L149.003 55.9861C160.538 54.4087 179.483 54.6225 198.861 56.2571C218.212 57.8895 237.814 60.9232 250.711 64.9188C276.976 74.9012 295.951 90.7967 311.008 109.012C317.369 118.013 324.956 130.199 332.112 141.752C332.485 142.354 332.857 142.954 333.227 143.552C339.955 154.416 346.234 164.555 350.584 170.578L350.6 170.601L350.617 170.622C360.366 183.121 362.787 185.87 367.694 191.441C368.686 192.568 369.78 193.81 371.057 195.272C374.758 199.74 379.684 204.047 384.366 207.317C386.713 208.956 389.023 210.351 391.112 211.381C393.172 212.397 395.126 213.112 396.734 213.291L396.761 213.294L396.787 213.296C399.809 213.524 404.027 212.434 407.642 210.423C411.243 208.419 414.647 205.271 415.472 201.09L415.723 199.814L414.496 199.384C401.07 194.681 392.722 187.141 389.519 177.813L389.517 177.808C386.334 168.633 385.551 159.32 387.212 140.262C397.82 144.71 401.022 147.461 402.256 149.356C402.75 150.116 402.941 150.725 403.181 151.493C403.262 151.75 403.348 152.024 403.452 152.328C403.875 153.555 404.509 154.81 406.124 156.139C410.856 160.37 415.265 161.936 420.376 163.75C420.713 163.869 421.052 163.99 421.395 164.113L421.46 164.136L421.526 164.153C424.705 164.972 428.146 164.643 430.888 164.382C431.262 164.346 431.622 164.312 431.968 164.282C433.49 164.149 434.66 164.1 435.526 164.249C436.322 164.385 436.594 164.636 436.735 164.924C437.081 165.725 437.311 166.71 437.518 167.857C437.583 168.22 437.648 168.612 437.715 169.015C437.848 169.818 437.989 170.67 438.16 171.447C438.668 173.758 439.642 176.493 442.615 177.42C444.12 177.978 445.546 177.616 446.753 176.974C447.937 176.344 449.084 175.354 450.148 174.383C450.433 174.123 450.713 173.864 450.992 173.605C451.804 172.853 452.602 172.114 453.449 171.43C454.513 170.572 455.556 169.888 456.612 169.483C459.56 169.33 462.979 170.509 466.629 172.089C467.544 172.485 468.479 172.91 469.418 173.336C472.121 174.563 474.86 175.807 477.263 176.436C483.241 178.506 491.661 176.618 497.092 171.825L497.235 171.699L497.342 171.541C497.897 170.722 498.287 170.057 498.587 169.53C498.657 169.407 498.719 169.297 498.775 169.198C498.976 168.842 499.097 168.626 499.218 168.453C499.283 168.36 499.32 168.321 499.335 168.307L499.337 168.305C499.342 168.3 499.344 168.299 499.343 168.3C499.342 168.301 499.341 168.301 499.344 168.3C499.358 168.292 499.476 168.238 499.903 168.209C500.461 168.171 501.205 168.185 502.349 168.207C503.105 168.222 504.035 168.24 505.202 168.248C507.807 168.267 511.431 168.231 516.546 167.974C517.052 173.369 517.302 178.459 517.077 182.747C516.829 187.482 516.013 190.92 514.612 192.784C514.609 192.788 514.606 192.792 514.603 192.796L514.388 193.068C510.54 197.94 508.248 200.841 505.244 203.117C502.22 205.408 498.393 207.117 491.332 209.343C484.343 210.68 478.094 211.719 470.035 211.463C461.931 211.206 451.929 209.635 437.499 205.654L436.22 205.301L435.713 206.528C429.841 220.762 427.294 226.544 417.089 240.515L417.08 240.527L417.072 240.539C412.788 246.652 405.457 252.576 397.701 257.671C389.976 262.747 381.966 266.915 376.454 269.546L376.446 269.55L376.439 269.553C371.139 272.154 363.388 274.872 355.356 277.671L354.828 277.855C347.065 280.56 339.105 283.333 333.165 286.094C320.02 290.031 269.683 303.745 236.482 308.616L236.458 308.619L236.434 308.624C221.004 311.402 193.776 313.251 167.212 313.925C140.646 314.6 114.954 314.095 102.543 312.22C101.823 312.092 101.108 311.965 100.399 311.839C76.1063 307.527 58.7843 304.453 45.4789 291.257C31.7566 276.443 26.2004 264.684 23.365 251.778L23.3564 251.739L23.3458 251.7C18.6768 234.813 15.0051 216.266 15.8992 188.448Z" fill="#8CD5DA" stroke="#698189" stroke-width="3"/>
<path d="M81.6 73.7C89 79.7 85.7 91.3 91.8 95.1C96.1 97.6 106.9 98.9 119.1 95.9C128.2 92.8 132.5 90 134.1 84.2C135.3 64.8 134.1 65.7 129.5 62.8L107.2 60L81.6 73.7Z" fill="#7EB5B7"/>
<path d="M86.6911 69.5384L86.7 69.5615C88.8939 75.2657 91.633 80.1793 95.424 86.98C95.7664 87.5942 96.1173 88.2238 96.4773 88.8708C106.559 90.9068 113.904 89.8044 121.922 85.1751C125.069 82.4057 126.724 79.4799 127.554 76.0248C128.377 72.5987 128.401 68.6063 128.136 63.6034C117.321 53.9168 112.214 48.1783 106.696 41.977C104.768 39.8108 102.79 37.5881 100.501 35.1209L86.6911 69.5384ZM86.6911 69.5384L86.6814 69.5155M86.6911 69.5384L86.6814 69.5155M86.6814 69.5155C84.5257 64.4202 81.3532 54.4182 79.4703 45.1028L79.4635 45.0693M86.6814 69.5155L79.4635 45.0693M79.4635 45.0693L79.4552 45.0362M79.4635 45.0693L79.4552 45.0362M79.4552 45.0362C77.8298 38.5347 75.0229 30.881 71.9602 23.0181M79.4552 45.0362L71.9602 23.0181M71.9602 23.0181C70.9605 20.4515 69.9341 17.8639 68.9098 15.2817M71.9602 23.0181L68.9098 15.2817M68.9098 15.2817C67.4999 11.7271 66.094 8.18276 64.7672 4.71713M68.9098 15.2817L64.7672 4.71713M64.7672 4.71713C67.7493 7.1012 70.6539 9.29069 73.5408 11.4668C75.6012 13.0199 77.6526 14.5662 79.7166 16.1715C86.0838 21.1238 92.7195 26.7447 100.5 35.1202L64.7672 4.71713Z" fill="url(#paint0_linear_63_526)" stroke="#698189" stroke-width="3"/>
<path d="M103.541 76.5934L103.562 76.5915L103.583 76.5889C104.406 76.4879 105.198 76.3317 105.964 76.1274C105.312 76.4325 104.617 76.7115 103.87 76.9622C99.5116 78.1108 95.3032 78.1063 90.5782 78.0186L90.1367 77.0375C94.5058 77.0886 98.9809 77.0236 103.541 76.5934Z" fill="#A5A5A5" stroke="#698189" stroke-width="3"/>
<path d="M114.577 51.5917C114.678 51.3467 114.776 51.1001 114.869 50.8521L115.015 51.0036C114.866 51.2002 114.72 51.3965 114.577 51.5917Z" fill="#A5A5A5" stroke="#698189" stroke-width="3"/>
<path d="M80.22 48.6954C83.2189 49.148 86.3538 49.2354 89.5815 48.7567C86.6336 49.3603 83.5979 49.584 80.4643 49.6726L80.22 48.6954ZM94.5001 46.0002L94.5 46L94.5001 46.0002Z" fill="#A5A5A5" stroke="#698189" stroke-width="3"/>
<mask id="path-9-inside-1_63_526" fill="white">
<path d="M72.1 27.4C75.3 27 79.7 26.8 80.9 26C83.6 24.4 85.4 22.4 87.2 20.4L87.8 20.9C87 24.3 84.7 26.4 82.1 28.2C80.7 29.1 77.6 29 72.2 27.9L72.1 27.4Z"/>
</mask>
<path d="M72.1 27.4C75.3 27 79.7 26.8 80.9 26C83.6 24.4 85.4 22.4 87.2 20.4L87.8 20.9C87 24.3 84.7 26.4 82.1 28.2C80.7 29.1 77.6 29 72.2 27.9L72.1 27.4Z" fill="#A5A5A5"/>
<path d="M72.1 27.4L71.7279 24.4232L68.5253 24.8235L69.1583 27.9884L72.1 27.4ZM80.9 26L79.3706 23.4191L79.3021 23.4597L79.2359 23.5039L80.9 26ZM87.2 20.4L89.1205 18.0954L86.902 16.2466L84.9701 18.3931L87.2 20.4ZM87.8 20.9L90.7203 21.5871L91.1449 19.7823L89.7206 18.5954L87.8 20.9ZM82.1 28.2L83.7223 30.7236L83.7654 30.6958L83.8076 30.6666L82.1 28.2ZM72.2 27.9L69.2583 28.4884L69.649 30.442L71.6012 30.8397L72.2 27.9ZM72.4721 30.3769C73.2279 30.2824 74.0648 30.1985 74.9527 30.1103C75.8247 30.0238 76.7472 29.9329 77.611 29.8282C78.4671 29.7245 79.3387 29.5987 80.1073 29.4313C80.7706 29.2868 81.7578 29.0337 82.5641 28.4962L79.2359 23.5039C79.4423 23.3663 79.4294 23.4382 78.8303 23.5688C78.3363 23.6763 77.6829 23.7756 76.889 23.8718C76.1028 23.9671 75.2503 24.0513 74.3598 24.1397C73.4853 24.2265 72.5721 24.3177 71.7279 24.4232L72.4721 30.3769ZM82.4294 28.5809C85.5727 26.7182 87.6482 24.3866 89.4299 22.4069L84.9701 18.3931C83.1519 20.4134 81.6273 22.0818 79.3706 23.4191L82.4294 28.5809ZM85.2795 22.7047L85.8795 23.2047L89.7206 18.5954L89.1205 18.0954L85.2795 22.7047ZM84.8798 20.2129C84.34 22.5068 82.8103 24.0595 80.3924 25.7334L83.8076 30.6666C86.5897 28.7406 89.66 26.0932 90.7203 21.5871L84.8798 20.2129ZM80.4777 25.6765C80.5764 25.6131 80.2307 25.8472 78.7423 25.8014C77.3679 25.7592 75.4355 25.4975 72.7988 24.9604L71.6012 30.8397C74.3645 31.4025 76.6822 31.7409 78.5577 31.7986C80.3194 31.8528 82.2237 31.687 83.7223 30.7236L80.4777 25.6765ZM75.1417 27.3117L75.0417 26.8117L69.1583 27.9884L69.2583 28.4884L75.1417 27.3117Z" fill="#698189" mask="url(#path-9-inside-1_63_526)"/>
<path d="M155.9 297.3H155.919L155.937 297.3C157.776 297.254 162.007 297.823 168.074 298.697C168.799 298.802 169.549 298.91 170.321 299.022C175.909 299.831 182.666 300.808 190.022 301.689L190.061 301.694L190.101 301.697C202.249 302.5 218.676 302.607 231.435 300.581L231.436 300.581C247.961 297.948 256.958 293.99 267.434 289.381C268.426 288.944 269.432 288.502 270.459 288.054L290.212 297.849L262.479 303.935L262.459 303.939L262.44 303.944C239.991 309.494 223.375 310.693 204.715 312.04C200.977 312.31 197.157 312.586 193.192 312.904C173.719 314.154 164.831 314.124 137.645 314.032C134.499 314.022 131.109 314.01 127.429 314C110.451 313.4 107.169 312.95 99.83 311.945C99.0566 311.839 98.2382 311.727 97.3539 311.607C97.3564 311.544 97.3586 311.484 97.3607 311.427C97.37 311.177 97.3774 310.978 97.4036 310.738C97.4641 310.185 97.6318 309.426 98.3498 308.046C100.985 304.971 103.798 302.834 107.326 301.33C110.93 299.794 115.351 298.889 121.223 298.395C133.558 297.4 145.506 297.3 155.9 297.3Z" fill="#7EB5B7" stroke="#698189" stroke-width="3"/>
<path d="M230.7 68.7001C230.7 65.8207 231.279 63.0214 232.367 60.4925C239.276 61.8212 245.575 63.2354 250.702 64.8162C254.642 66.3749 258.485 68.0136 262.08 69.7321C261.659 79.5595 254.621 87.1001 246.4 87.1001C237.926 87.1001 230.7 79.0839 230.7 68.7001Z" fill="#7EB5B7" stroke="#698189" stroke-width="3"/>
<path d="M255 101.5C255 102.92 254.601 104.139 254.034 104.963C253.463 105.793 252.825 106.1 252.3 106.1C251.775 106.1 251.137 105.793 250.566 104.963C249.999 104.139 249.6 102.92 249.6 101.5C249.6 100.08 249.999 98.8607 250.566 98.0373C251.137 97.2075 251.775 96.9 252.3 96.9C252.825 96.9 253.463 97.2075 254.034 98.0373C254.601 98.8607 255 100.08 255 101.5Z" fill="#7EB5B7" stroke="#698189" stroke-width="3"/>
<path d="M276.5 86.5001C276.5 83.4405 277.293 80.762 278.474 79.0793C281.072 80.8096 283.537 82.5453 285.928 84.3435C286.043 85.0642 286.1 85.7829 286.1 86.5001C286.1 89.2856 285.447 91.7141 284.467 93.3943C283.468 95.1067 282.301 95.8001 281.3 95.8001C280.299 95.8001 279.132 95.1067 278.133 93.3943C277.153 91.7141 276.5 89.2856 276.5 86.5001Z" fill="#7EB5B7" stroke="#698189" stroke-width="3"/>
<path d="M272.4 102.5C272.4 104.465 271.837 106.18 271.004 107.364C270.168 108.553 269.154 109.1 268.2 109.1C267.246 109.1 266.233 108.553 265.396 107.364C264.563 106.18 264 104.465 264 102.5C264 100.535 264.563 98.8199 265.396 97.6357C266.233 96.4473 267.246 95.9 268.2 95.9C269.154 95.9 270.168 96.4473 271.004 97.6357C271.837 98.8199 272.4 100.535 272.4 102.5Z" fill="#7EB5B7" stroke="#698189" stroke-width="3"/>
<path d="M261.1 112.3C261.1 113.027 260.893 113.62 260.636 113.99C260.375 114.366 260.161 114.4 260.1 114.4C260.039 114.4 259.825 114.366 259.564 113.99C259.307 113.62 259.1 113.027 259.1 112.3C259.1 111.573 259.307 110.981 259.564 110.61C259.825 110.234 260.039 110.2 260.1 110.2C260.161 110.2 260.375 110.234 260.636 110.61C260.893 110.981 261.1 111.573 261.1 112.3Z" fill="#7EB5B7" stroke="#698189" stroke-width="3"/>
<path d="M296.2 109.1C296.2 104.521 297.683 100.203 300.199 96.9838C304.087 100.8 307.665 104.848 311.009 108.913C313.8 112.822 316.769 117.26 319.836 122.065C317.18 124.951 313.868 126.5 310.4 126.5C302.776 126.5 296.2 119.043 296.2 109.1Z" fill="#7EB5B7" stroke="#698189" stroke-width="3"/>
<path d="M290.5 112.5C290.5 116.121 288.075 118.6 285.6 118.6C283.125 118.6 280.7 116.121 280.7 112.5C280.7 108.879 283.125 106.4 285.6 106.4C288.075 106.4 290.5 108.879 290.5 112.5Z" fill="#7EB5B7" stroke="#698189" stroke-width="3"/>
<path d="M289 130.3C289 131.288 288.73 132.114 288.373 132.65C288.009 133.196 287.671 133.3 287.5 133.3C287.329 133.3 286.991 133.196 286.627 132.65C286.27 132.114 286 131.288 286 130.3C286 129.312 286.27 128.486 286.627 127.95C286.991 127.404 287.329 127.3 287.5 127.3C287.671 127.3 288.009 127.404 288.373 127.95C288.73 128.486 289 129.312 289 130.3Z" fill="#7EB5B7" stroke="#698189" stroke-width="3"/>
<path d="M306.9 142.2C306.9 145.161 306.131 147.772 304.968 149.596C303.794 151.437 302.355 152.3 301 152.3C299.646 152.3 298.206 151.437 297.032 149.596C295.869 147.772 295.1 145.161 295.1 142.2C295.1 139.239 295.869 136.628 297.032 134.804C298.206 132.963 299.646 132.1 301 132.1C302.355 132.1 303.794 132.963 304.968 134.804C306.131 136.628 306.9 139.239 306.9 142.2Z" fill="#7EB5B7" stroke="#698189" stroke-width="3"/>
<path d="M296.6 163.3C296.6 165.841 294.873 167.5 293.2 167.5C291.527 167.5 289.8 165.841 289.8 163.3C289.8 160.76 291.527 159.1 293.2 159.1C294.873 159.1 296.6 160.76 296.6 163.3Z" fill="#7EB5B7" stroke="#698189" stroke-width="3"/>
<path d="M325.4 134.7C325.4 133.555 325.49 132.389 325.656 131.257C327.285 133.852 328.899 136.443 330.5 139.014C332.272 141.86 334.028 144.68 335.769 147.45C334.846 148.177 333.911 148.5 333 148.5C331.238 148.5 329.37 147.292 327.863 144.768C326.374 142.276 325.4 138.727 325.4 134.7Z" fill="#7EB5B7" stroke="#698189" stroke-width="3"/>
<path d="M325 162.7C325 164.453 324.47 165.982 323.685 167.038C322.901 168.094 321.935 168.6 321 168.6C320.065 168.6 319.099 168.094 318.315 167.038C317.53 165.982 317 164.453 317 162.7C317 160.947 317.53 159.418 318.315 158.362C319.099 157.307 320.065 156.8 321 156.8C321.935 156.8 322.901 157.307 323.685 158.362C324.47 159.418 325 160.947 325 162.7Z" fill="#7EB5B7" stroke="#698189" stroke-width="3"/>
<path d="M339.4 159.8C339.4 157.962 339.865 156.34 340.599 155.132C342.725 158.569 344.766 161.778 346.57 164.506C345.727 165.958 344.569 166.6 343.6 166.6C342.63 166.6 341.62 166.045 340.788 164.829C339.958 163.613 339.4 161.844 339.4 159.8Z" fill="#7EB5B7" stroke="#698189" stroke-width="3"/>
<path d="M320.5 147.7C320.5 150.628 318.727 152.3 317.3 152.3C315.873 152.3 314.1 150.628 314.1 147.7C314.1 144.773 315.873 143.1 317.3 143.1C318.727 143.1 320.5 144.773 320.5 147.7Z" fill="#7EB5B7" stroke="#698189" stroke-width="3"/>
<path d="M316.7 173.5C316.7 175.328 315.42 176.5 314.2 176.5C312.981 176.5 311.7 175.328 311.7 173.5C311.7 171.672 312.981 170.5 314.2 170.5C315.42 170.5 316.7 171.672 316.7 173.5Z" fill="#7EB5B7" stroke="#698189" stroke-width="3"/>
<path d="M393.9 152.2C393.9 149.47 394.862 146.877 396.682 144.778C401.189 147.38 402.278 149.105 402.784 150.36C402.9 150.65 402.997 150.978 403.104 151.337C403.493 152.653 404.002 154.373 406.021 156.037C408.595 158.357 411.108 159.892 413.733 161.097C411.575 162.836 408.849 163.8 406 163.8C399.269 163.8 393.9 158.614 393.9 152.2Z" fill="#7EB5B7" stroke="#698189" stroke-width="3"/>
<path d="M436.707 164.957L436.72 164.989L436.734 165.021C437.246 166.146 437.484 167.516 437.761 169.106C437.836 169.538 437.914 169.987 438.001 170.452C438.295 172.023 438.711 173.854 439.72 175.306C437.931 177.684 435.285 179.1 432.5 179.1C427.508 179.1 423.4 174.854 423.4 169.4C423.4 167.707 423.838 166.062 424.621 164.574C426.245 164.669 427.856 164.571 429.328 164.445C429.808 164.404 430.266 164.36 430.705 164.319C431.944 164.202 433.029 164.1 434 164.1C434.963 164.1 435.612 164.179 436.048 164.342C436.403 164.475 436.583 164.646 436.707 164.957Z" fill="#7EB5B7" stroke="#698189" stroke-width="3"/>
<path d="M452.487 172.306C453.909 171.08 455.261 170.048 456.668 169.5H456.67H456.672H456.675H456.677H456.68H456.682H456.685H456.688H456.69H456.693H456.695H456.698H456.7H456.703H456.705H456.708H456.711H456.713H456.716H456.718H456.721H456.723H456.726H456.728H456.731H456.734H456.736H456.739H456.741H456.744H456.746H456.749H456.752H456.754H456.757H456.759H456.762H456.765H456.767H456.77H456.772H456.775H456.777H456.78H456.783H456.785H456.788H456.79H456.793H456.796H456.798H456.801H456.803H456.806H456.809H456.811H456.814H456.816H456.819H456.822H456.824H456.827H456.829H456.832H456.835H456.837H456.84H456.842H456.845H456.848H456.85H456.853H456.856H456.858H456.861H456.863H456.866H456.869H456.871H456.874H456.876H456.879H456.882H456.884H456.887H456.89H456.892H456.895H456.897H456.9H456.903H456.905H456.908H456.911H456.913H456.916H456.918H456.921H456.924H456.926H456.929H456.932H456.934H456.937H456.939H456.942H456.945H456.947H456.95H456.953H456.955H456.958H456.96H456.963H456.966H456.968H456.971H456.974H456.976H456.979H456.982H456.984H456.987H456.989H456.992H456.995H456.997H457H457.003H457.005H457.008H457.01H457.013H457.016H457.018H457.021H457.024H457.026H457.029H457.032H457.034H457.037H457.039H457.042H457.045H457.047H457.05H457.053H457.055H457.058H457.061H457.063H457.066H457.068H457.071H457.074H457.076H457.079H457.082H457.084H457.087H457.09H457.092H457.095H457.097H457.1H457.103H457.105H457.108H457.111H457.113H457.116H457.119H457.121H457.124H457.126H457.129H457.132H457.134H457.137H457.14H457.142H457.145H457.148H457.15H457.153H457.155H457.158H457.161H457.163H457.166H457.169H457.171H457.174H457.176H457.179H457.182H457.184H457.187H457.19H457.192H457.195H457.197H457.2H457.203H457.205H457.208H457.211H457.213H457.216H457.218H457.221H457.224H457.226H457.229H457.231H457.234H457.237H457.239H457.242H457.245H457.247H457.25H457.252H457.255H457.258H457.26H457.263H457.265H457.268H457.271H457.273H457.276H457.278H457.281H457.284H457.286H457.289H457.291H457.294H457.297H457.299H457.302H457.304H457.307H457.31H457.312H457.315H457.317H457.32H457.323H457.325H457.328H457.33H457.333H457.336H457.338H457.341H457.343H457.346H457.348H457.351H457.354H457.356H457.359H457.361H457.364H457.366H457.369H457.372H457.374H457.377H457.379H457.382H457.384H457.387H457.39H457.392H457.395H457.397H457.4H457.402H457.405H457.407H457.41H457.413H457.415H457.418H457.42H457.423H457.425H457.428H457.43H457.433H457.435H457.438H457.441H457.443H457.446H457.448H457.451H457.453H457.456H457.458H457.461H457.463H457.466H457.468H457.471H457.473H457.476H457.478H457.481H457.483H457.486H457.488H457.491H457.493H457.496H457.498H457.501H457.503H457.506H457.508H457.511H457.513H457.516H457.518H457.521H457.523H457.526H457.528H457.531H457.533H457.536H457.538H457.541H457.543H457.546H457.548H457.551H457.553H457.556H457.558H457.561H457.563H457.565H457.568H457.57H457.573H457.575H457.578H457.58H457.583H457.585H457.588H457.59H457.592H457.595H457.597H457.6H457.602H457.605H457.607H457.609H457.612H457.614H457.617H457.619H457.622H457.624H457.626H457.629H457.631H457.634H457.636H457.638H457.641H457.643H457.646H457.648H457.65H457.653H457.655H457.657H457.66H457.662H457.665H457.667H457.669H457.67C459.943 169.595 462.486 170.385 465.182 171.488C466.524 172.037 467.874 172.651 469.222 173.272C469.43 173.367 469.638 173.463 469.846 173.559C470.577 173.897 471.309 174.235 472.031 174.559C470.539 179.464 466.618 182.6 462.5 182.6C457.781 182.6 453.398 178.375 452.487 172.306Z" fill="#7EB5B7" stroke="#698189" stroke-width="3"/>
<path d="M497.192 171.925L497.335 171.799L497.441 171.642C497.943 170.903 498.31 170.29 498.598 169.789C498.701 169.611 498.787 169.458 498.863 169.324C499.014 169.057 499.124 168.864 499.235 168.69C499.309 168.575 499.36 168.507 499.396 168.465C499.413 168.445 499.425 168.433 499.432 168.426C499.439 168.42 499.443 168.417 499.444 168.416C499.444 168.416 499.445 168.415 499.448 168.414C499.451 168.413 499.458 168.409 499.472 168.403C499.502 168.392 499.563 168.373 499.676 168.354C500.192 168.266 501.028 168.277 502.793 168.3C502.953 168.302 503.121 168.304 503.297 168.306C505.105 168.329 507.611 168.346 511.141 168.242C511.31 169.356 511.43 170.498 511.5 171.741C511.492 175.955 510.293 179.706 508.433 182.366C506.564 185.039 504.126 186.5 501.6 186.5C499.408 186.5 497.226 185.345 495.432 183.171C493.818 181.214 492.58 178.49 492.042 175.3C493.886 174.411 495.647 173.289 497.192 171.925Z" fill="#7EB5B7" stroke="#698189" stroke-width="3"/>
<path d="M486.8 182.8C486.8 183.936 486.473 184.9 486.02 185.541C485.565 186.186 485.076 186.4 484.7 186.4C484.324 186.4 483.835 186.186 483.38 185.541C482.927 184.9 482.6 183.936 482.6 182.8C482.6 181.664 482.927 180.7 483.38 180.059C483.835 179.414 484.324 179.2 484.7 179.2C485.076 179.2 485.565 179.414 486.02 180.059C486.473 180.7 486.8 181.664 486.8 182.8Z" fill="#7EB5B7" stroke="#698189" stroke-width="3"/>
<path d="M449.3 180C449.3 181.545 448.165 182.6 447 182.6C445.835 182.6 444.7 181.545 444.7 180C444.7 178.455 445.835 177.4 447 177.4C448.165 177.4 449.3 178.455 449.3 180Z" fill="#7EB5B7" stroke="#698189" stroke-width="3"/>
<path d="M467.4 187.9C467.4 189.131 466.558 189.8 465.9 189.8C465.243 189.8 464.4 189.131 464.4 187.9C464.4 186.669 465.243 186 465.9 186C466.558 186 467.4 186.669 467.4 187.9Z" fill="#7EB5B7" stroke="#698189" stroke-width="3"/>
<path d="M482.2 192.2C482.2 193.132 481.923 193.916 481.55 194.429C481.175 194.944 480.786 195.1 480.5 195.1C480.214 195.1 479.825 194.944 479.45 194.429C479.077 193.916 478.8 193.132 478.8 192.2C478.8 191.268 479.077 190.484 479.45 189.971C479.825 189.456 480.214 189.3 480.5 189.3C480.786 189.3 481.175 189.456 481.55 189.971C481.923 190.484 482.2 191.268 482.2 192.2Z" fill="#7EB5B7" stroke="#698189" stroke-width="3"/>
<path d="M410.7 172.2C410.7 174.13 409.337 175.4 408 175.4C406.663 175.4 405.3 174.13 405.3 172.2C405.3 170.27 406.663 169 408 169C409.337 169 410.7 170.27 410.7 172.2Z" fill="#7EB5B7" stroke="#698189" stroke-width="3"/>
<path d="M398.5 170.5C398.5 171.383 398.242 172.12 397.901 172.598C397.557 173.079 397.218 173.2 397 173.2C396.782 173.2 396.443 173.079 396.099 172.598C395.758 172.12 395.5 171.383 395.5 170.5C395.5 169.617 395.758 168.88 396.099 168.402C396.443 167.921 396.782 167.8 397 167.8C397.218 167.8 397.557 167.921 397.901 168.402C398.242 168.88 398.5 169.617 398.5 170.5Z" fill="#7EB5B7" stroke="#698189" stroke-width="3"/>
<path d="M417.1 167.8C417.1 168.896 416.408 169.3 416.1 169.3C415.792 169.3 415.1 168.896 415.1 167.8C415.1 166.704 415.792 166.3 416.1 166.3C416.408 166.3 417.1 166.704 417.1 167.8Z" fill="#7EB5B7" stroke="#698189" stroke-width="3"/>
<path d="M422.8 179.9C422.8 182.003 421.383 183.3 420.1 183.3C418.817 183.3 417.4 182.003 417.4 179.9C417.4 177.797 418.817 176.5 420.1 176.5C421.383 176.5 422.8 177.797 422.8 179.9Z" fill="#7EB5B7" stroke="#698189" stroke-width="3"/>
<path d="M458.7 190.4C458.7 191.828 457.784 192.5 457.2 192.5C456.616 192.5 455.7 191.828 455.7 190.4C455.7 188.973 456.616 188.3 457.2 188.3C457.784 188.3 458.7 188.973 458.7 190.4Z" fill="#7EB5B7" stroke="#698189" stroke-width="3"/>
<path d="M494.7 198.3C494.7 199.963 494.226 201.404 493.536 202.39C492.843 203.38 492.029 203.8 491.3 203.8C490.571 203.8 489.757 203.38 489.064 202.39C488.374 201.404 487.9 199.963 487.9 198.3C487.9 196.637 488.374 195.196 489.064 194.21C489.757 193.22 490.571 192.8 491.3 192.8C492.029 192.8 492.843 193.22 493.536 194.21C494.226 195.196 494.7 196.637 494.7 198.3Z" fill="#7EB5B7" stroke="#698189" stroke-width="3"/>
<path d="M207.474 374.105L207.462 374.106L120.027 382.191C113.655 381.352 107.082 378.677 101.964 372.996C96.8068 367.271 92.9907 358.34 92.4992 344.752C92.0532 329.121 94.0752 318.846 97.7392 311.9C101.33 305.093 106.576 301.335 113.028 298.88L195.795 292.697C195.797 292.697 195.8 292.697 195.803 292.697C197.52 292.589 198.808 292.917 199.832 293.486C200.873 294.064 201.741 294.947 202.523 296.095C203.31 297.25 203.975 298.621 204.634 300.126C204.851 300.624 205.073 301.147 205.298 301.68C205.731 302.702 206.178 303.759 206.645 304.743L207.104 305.71L208.167 305.591L272.567 298.391L272.666 298.38L272.764 298.355C273.247 298.235 273.577 298.294 273.851 298.423C274.16 298.57 274.507 298.86 274.892 299.368C275.59 300.289 276.161 301.56 276.817 303.017C276.92 303.247 277.026 303.482 277.134 303.721L277.632 304.815L278.808 304.568L346.908 290.268L347.999 290.039L348.094 288.929C348.159 288.178 348.204 287.397 348.247 286.622L348.256 286.461C348.297 285.734 348.337 285.01 348.392 284.287C348.512 282.728 348.697 281.251 349.069 279.932C349.439 278.619 349.977 277.528 350.761 276.69C351.525 275.874 352.596 275.217 354.182 274.874C357.723 274.284 361.151 276.194 364.119 280.9C367.094 285.617 369.376 292.851 370.511 301.985L370.517 302.03L370.525 302.074C370.594 302.445 370.663 302.817 370.732 303.187C372.076 310.419 373.382 317.443 373.164 323.155C373.049 326.139 372.52 328.624 371.462 330.534C370.429 332.396 368.852 333.79 366.437 334.573L366.405 334.584L366.373 334.596C364.105 335.446 362.066 335.059 360.026 333.653C357.909 332.193 355.841 329.655 353.776 326.312L353.227 325.422L352.202 325.63L284.102 339.43L283.112 339.631L282.926 340.624C282.749 341.567 282.725 342.575 282.713 343.462C282.711 343.562 282.71 343.661 282.709 343.759C282.698 344.569 282.689 345.28 282.611 345.933C282.523 346.661 282.365 347.147 282.146 347.469C281.965 347.736 281.68 347.986 281.084 348.133L215.82 360.526L214.827 360.715L214.629 361.706C214.475 362.476 214.338 363.26 214.204 364.024L214.196 364.067C214.064 364.823 213.935 365.559 213.793 366.281C213.5 367.759 213.164 369.096 212.681 370.241C212.201 371.378 211.6 372.264 210.814 372.897C210.04 373.52 208.991 373.977 207.474 374.105Z" fill="#AE7C47" stroke="#77593A" stroke-width="3"/>
<path d="M124.765 340.257C125.439 349.969 124.38 358.806 122.182 365.226C121.081 368.44 119.72 370.976 118.211 372.715C116.706 374.448 115.136 375.307 113.571 375.415C112.005 375.524 110.332 374.89 108.603 373.381C106.868 371.867 105.169 369.543 103.636 366.513C100.572 360.457 98.304 351.85 97.6305 342.138C96.957 332.426 98.0154 323.589 100.214 317.168C101.314 313.955 102.676 311.419 104.185 309.68C105.689 307.947 107.26 307.088 108.825 306.98C110.39 306.871 112.064 307.504 113.793 309.013C115.528 310.528 117.226 312.851 118.76 315.882C121.824 321.938 124.092 330.545 124.765 340.257Z" fill="#079DA7" stroke="#8CD5DA" stroke-width="3"/>
<path d="M99.2 330.8C99.2 324.226 100.493 318.358 102.501 314.188C104.559 309.916 107.097 307.909 109.385 307.9C111.167 307.942 113.149 309.194 114.956 311.969C116.375 314.149 117.578 317.121 118.378 320.705C116.964 320.18 115.489 319.9 114 319.9C109.406 319.9 105.326 322.457 102.399 326.363C101.12 328.072 100.044 330.056 99.2209 332.242C99.2069 331.762 99.2 331.281 99.2 330.8Z" fill="white" stroke="#8CD5DA" stroke-width="3"/>
<path d="M119.7 330.8C119.7 332.205 119.392 333.402 118.969 334.194C118.512 335.05 118.134 335.1 118.1 335.1C118.066 335.1 117.688 335.05 117.231 334.194C116.808 333.402 116.5 332.205 116.5 330.8C116.5 329.395 116.808 328.198 117.231 327.406C117.688 326.55 118.066 326.5 118.1 326.5C118.134 326.5 118.512 326.55 118.969 327.406C119.392 328.198 119.7 329.395 119.7 330.8Z" fill="white" stroke="#8CD5DA" stroke-width="3"/>
<path d="M248.5 273C247 275.7 247.2 276.4 246.9 278.1C246.6 281.2 269.2 296.8 284.9 300.2L294.7 298.4L248.5 273Z" fill="#769B9D" fill-opacity="0.5333"/>
<path d="M312.8 248.4C314.8 249.1 317.5 248.9 318.6 250.5C321.1 254 323.3 261.7 325.7 267.4C327.7 272.3 332.6 279.3 338.8 285.1L333.7 287.5L312.5 270.6L312.8 248.4Z" fill="#769B9D" fill-opacity="0.5333"/>
<mask id="path-47-inside-2_63_526" fill="white">
<path d="M248.5 273C261.5 284.4 265 287.3 286 297.6C300.3 304 335.4 303.4 355.6 298.7C311.9 264.6 322.3 262.4 312.7 248.3"/>
</mask>
<path d="M248.5 273C261.5 284.4 265 287.3 286 297.6C300.3 304 335.4 303.4 355.6 298.7C311.9 264.6 322.3 262.4 312.7 248.3" fill="#8CD5DA"/>
<path d="M286 297.6L284.679 300.293L284.726 300.317L284.774 300.338L286 297.6ZM355.6 298.7L356.28 301.622L362.397 300.199L357.446 296.335L355.6 298.7ZM246.522 275.256C253.003 280.939 257.268 284.642 262.579 288.204C267.883 291.761 274.162 295.135 284.679 300.293L287.321 294.907C276.838 289.765 270.867 286.539 265.921 283.221C260.982 279.908 256.997 276.461 250.478 270.744L246.522 275.256ZM284.774 300.338C292.539 303.813 305.437 305.25 318.573 305.313C331.83 305.376 345.897 304.038 356.28 301.622L354.92 295.778C345.103 298.062 331.52 299.374 318.602 299.313C305.563 299.25 293.761 297.787 287.226 294.862L284.774 300.338ZM357.446 296.335C335.635 279.316 327.678 270.514 323.915 264.423C322.051 261.407 321.177 259.003 320.104 256.241C319.014 253.438 317.768 250.413 315.18 246.612L310.22 249.988C312.432 253.237 313.486 255.775 314.512 258.415C315.554 261.097 316.611 264.018 318.81 267.577C323.172 274.636 331.865 283.985 353.754 301.065L357.446 296.335Z" fill="#698189" mask="url(#path-47-inside-2_63_526)"/>
<path fill-rule="evenodd" clip-rule="evenodd" d="M105.182 269.38C103.286 269.364 100.951 269.398 98.3714 269.437C93.328 269.512 87.3476 269.601 81.8768 269.352C77.6847 269.161 73.5512 268.768 70.0626 267.979C66.7357 267.226 63.3001 265.969 61.2538 263.536C60.1124 262.18 60.287 260.154 61.6437 259.013C63.0004 257.872 65.0255 258.046 66.1669 259.403C66.7705 260.12 68.3724 261.013 71.4799 261.717C74.4257 262.383 78.1234 262.754 82.1688 262.938C87.4844 263.18 92.9933 263.095 97.8993 263.02C100.566 262.979 103.055 262.941 105.238 262.959L105.239 262.959" fill="#698189"/>
<path fill-rule="evenodd" clip-rule="evenodd" d="M105.072 269.38C106.968 269.364 109.303 269.398 111.882 269.437C116.926 269.512 122.906 269.601 128.377 269.352C132.569 269.161 136.703 268.768 140.191 267.979C143.518 267.226 146.954 265.969 149 263.536C150.141 262.18 149.967 260.154 148.61 259.013C147.253 257.872 145.228 258.046 144.087 259.403C143.483 260.12 141.881 261.013 138.774 261.717C135.828 262.383 132.13 262.754 128.085 262.938C122.769 263.18 117.26 263.095 112.354 263.02C109.688 262.979 107.199 262.941 105.016 262.959L105.015 262.959" fill="#698189"/>
<path d="M58.2 233.9C58.2 243.139 51.6272 250.3 43.9 250.3C36.1728 250.3 29.6 243.139 29.6 233.9C29.6 224.661 36.1728 217.5 43.9 217.5C51.6272 217.5 58.2 224.661 58.2 233.9Z" fill="white" fill-opacity="0.9507" stroke="#698189" stroke-width="3"/>
<path d="M211.4 231.1C211.4 242.378 201.953 251.6 190.2 251.6C178.447 251.6 169 242.378 169 231.1C169 219.822 178.447 210.6 190.2 210.6C201.953 210.6 211.4 219.822 211.4 231.1Z" fill="white" fill-opacity="0.9507" stroke="#698189" stroke-width="3"/>
<path d="M50.9 239.3C50.9 240.736 49.736 241.9 48.3 241.9C46.8641 241.9 45.7 240.736 45.7 239.3C45.7 237.864 46.8641 236.7 48.3 236.7C49.7359 236.7 50.9 237.864 50.9 239.3Z" fill="#4B4B4B" fill-opacity="0.949" stroke="#698189" stroke-width="3"/>
<path d="M191.1 238.1C191.1 239.536 189.936 240.7 188.5 240.7C187.064 240.7 185.9 239.536 185.9 238.1C185.9 236.664 187.064 235.5 188.5 235.5C189.936 235.5 191.1 236.664 191.1 238.1Z" fill="#4B4B4B" fill-opacity="0.9507" stroke="#698189" stroke-width="3"/>
<defs>
<linearGradient id="paint0_linear_63_526" x1="62.6465" y1="57.246" x2="88.3974" y2="45.0587" gradientUnits="userSpaceOnUse">
<stop stop-color="#CCCCCC"/>
<stop offset="1" stop-color="white"/>
</linearGradient>
</defs>
</svg>
